# WaveFront *.obj file (generated by Cheetah3D)

mtllib Pyramid.mtl

g Pyramid
v 0.000000 0.500000 0.000000
v 0.000000 -0.500000 0.000000
v 0.500000 0.000000 0.000000
v 0.000000 0.000000 0.500000
v -0.500000 0.000000 0.000000

vt -0.000240 -0.000312
vt -0.000232 1.000309
vt 0.487668 0.500434
vt 1.000240 1.000312
vt 1.000232 -0.000309

vn -0.577350 -0.577350 0.577350
vn 0.577350 0.577350 0.577350
vn -0.577350 0.577350 0.577350
vn 0.577350 -0.577350 0.577350

usemtl default
f 4/3/1 5/2/1 2/1/1
f 4/3/2 3/5/2 1/4/2
f 5/2/3 4/3/3 1/4/3
f 3/5/4 4/3/4 2/1/4

